<?xml version="1.0" encoding="utf-8"?>
<!-- Generator: Adobe Illustrator 26.2.1, SVG Export Plug-In . SVG Version: 6.00 Build 0)  -->
<svg version="1.1" id="Layer_1" xmlns="http://www.w3.org/2000/svg" xmlns:xlink="http://www.w3.org/1999/xlink" x="0px" y="0px"
	 viewBox="0 0 512 512" style="enable-background:new 0 0 512 512;" xml:space="preserve">
<style type="text/css">
	.st0{fill:#FFFFFF;}
</style>
<path class="st0" d="M156.6,384.9l-30.9-31.8c-8.5-7.6-11.5-20-8.6-31.3c3-8.9,7-20.5,12.7-33.8H24c-8.6,0-16.6-4.6-20.9-12.1
	c-4.3-7.5-4.2-16.7,0.2-24.1l52.5-88.5c13-21.9,36.5-36.2,62-36.2H200c2.4-3.1,4.8-6.8,7.2-10.4C289.1-4.1,411.1-8.1,483.9,5.3
	c11.7,2.1,20.7,11.2,22.8,22.8c13.4,72.8,9.4,194.8-111.4,276.7c-3.5,2.4-8.2,4.8-11.3,6.3v83.1c0,25.5-13.4,49-35.3,62l-88.5,52.4
	c-7.4,4.4-16.6,4.5-24.1,0.3c-7.5-4.3-12.1-12.3-12.1-20.9V380.8c-14.1,4.8-26.4,8.9-35.7,11.9C177.1,396.3,164.9,393.2,156.6,384.9
	L156.6,384.9z M384,167.1c22.1,0,40-17,40-40c0-21.2-17.9-40-40-40s-40,18.8-40,40C344,150.1,361.9,167.1,384,167.1z"/>
</svg>
